<svg width="18" height="17" viewBox="0 0 18 17" fill="none" xmlns="http://www.w3.org/2000/svg">
<path d="M0.5 1.80322C0.5 1.52708 0.723858 1.30322 1 1.30322H17C17.2761 1.30322 17.5 1.52708 17.5 1.80322C17.5 2.07936 17.2761 2.30322 17 2.30322H1C0.723858 2.30322 0.5 2.07936 0.5 1.80322ZM0.5 8.80322C0.5 8.52708 0.723858 8.30322 1 8.30322H11C11.2761 8.30322 11.5 8.52708 11.5 8.80322C11.5 9.07936 11.2761 9.30322 11 9.30322H1C0.723857 9.30322 0.5 9.07937 0.5 8.80322ZM0.5 15.8032C0.5 15.5271 0.723858 15.3032 1 15.3032H17C17.2761 15.3032 17.5 15.5271 17.5 15.8032C17.5 16.0794 17.2761 16.3032 17 16.3032H1C0.723858 16.3032 0.5 16.0794 0.5 15.8032Z" fill="#231F20" stroke="black"/>
</svg>
